solid OpenSCAD_Model
  facet normal 1 -0 0
    outer loop
      vertex 25 0 8
      vertex 25 5 0
      vertex 25 5 8
    endloop
  endfacet
  facet normal 1 0 0
    outer loop
      vertex 25 5 0
      vertex 25 0 8
      vertex 25 0 0
    endloop
  endfacet
  facet normal 0 0 1
    outer loop
      vertex 5 25 8
      vertex 0 25 8
      vertex 5 5 8
    endloop
  endfacet
  facet normal -0 0 1
    outer loop
      vertex 5 5 8
      vertex 25 0 8
      vertex 25 5 8
    endloop
  endfacet
  facet normal 0 0 1
    outer loop
      vertex 5 5 8
      vertex 0 0 8
      vertex 25 0 8
    endloop
  endfacet
  facet normal 0 0 1
    outer loop
      vertex 0 0 8
      vertex 5 5 8
      vertex 0 25 8
    endloop
  endfacet
  facet normal 0 0 -1
    outer loop
      vertex 25 0 0
      vertex 5 5 0
      vertex 25 5 0
    endloop
  endfacet
  facet normal 0 0 -1
    outer loop
      vertex 0 0 0
      vertex 5 5 0
      vertex 25 0 0
    endloop
  endfacet
  facet normal 0 0 -1
    outer loop
      vertex 0 25 0
      vertex 5 5 0
      vertex 0 0 0
    endloop
  endfacet
  facet normal 0 0 -1
    outer loop
      vertex 5 5 0
      vertex 0 25 0
      vertex 5 25 0
    endloop
  endfacet
  facet normal -1 0 0
    outer loop
      vertex 0 0 0
      vertex 0 25 8
      vertex 0 25 0
    endloop
  endfacet
  facet normal -1 -0 0
    outer loop
      vertex 0 25 8
      vertex 0 0 0
      vertex 0 0 8
    endloop
  endfacet
  facet normal 0 1 -0
    outer loop
      vertex 5 25 0
      vertex 0 25 8
      vertex 5 25 8
    endloop
  endfacet
  facet normal 0 1 0
    outer loop
      vertex 0 25 8
      vertex 5 25 0
      vertex 0 25 0
    endloop
  endfacet
  facet normal 0 -1 0
    outer loop
      vertex 0 0 0
      vertex 25 0 8
      vertex 0 0 8
    endloop
  endfacet
  facet normal 0 -1 -0
    outer loop
      vertex 25 0 8
      vertex 0 0 0
      vertex 25 0 0
    endloop
  endfacet
  facet normal 1 -0 0
    outer loop
      vertex 5 5 8
      vertex 5 25 0
      vertex 5 25 8
    endloop
  endfacet
  facet normal 1 0 0
    outer loop
      vertex 5 25 0
      vertex 5 5 8
      vertex 5 5 0
    endloop
  endfacet
  facet normal 0 1 -0
    outer loop
      vertex 25 5 0
      vertex 5 5 8
      vertex 25 5 8
    endloop
  endfacet
  facet normal 0 1 0
    outer loop
      vertex 5 5 8
      vertex 25 5 0
      vertex 5 5 0
    endloop
  endfacet
endsolid OpenSCAD_Model
