solid OpenSCAD_Model
  facet normal 1 0 0
    outer loop
      vertex 12 0 162
      vertex 12 10 10
      vertex 12 10 152
    endloop
  endfacet
  facet normal 1 0 0
    outer loop
      vertex 12 10 10
      vertex 12 0 162
      vertex 12 0 0
    endloop
  endfacet
  facet normal -1 0 0
    outer loop
      vertex 0 0 0
      vertex 0 15 147
      vertex 0 15 15
    endloop
  endfacet
  facet normal -1 -0 0
    outer loop
      vertex 0 15 147
      vertex 0 0 0
      vertex 0 0 162
    endloop
  endfacet
  facet normal 0 1 -0
    outer loop
      vertex 6 15 15
      vertex 0 15 147
      vertex 6 15 147
    endloop
  endfacet
  facet normal 0 1 0
    outer loop
      vertex 0 15 147
      vertex 6 15 15
      vertex 0 15 15
    endloop
  endfacet
  facet normal 0 -1 0
    outer loop
      vertex 4 0 0
      vertex 8 0 10
      vertex 4 0 10
    endloop
  endfacet
  facet normal 0 -1 -0
    outer loop
      vertex 8 0 10
      vertex 4 0 0
      vertex 8 0 0
    endloop
  endfacet
  facet normal 0 -1 0
    outer loop
      vertex 0 0 162
      vertex 2 0 152
      vertex 2 0 162
    endloop
  endfacet
  facet normal 0 -1 0
    outer loop
      vertex 4 0 10
      vertex 4 0 152
      vertex 2 0 152
    endloop
  endfacet
  facet normal 0 -1 0
    outer loop
      vertex 4 0 152
      vertex 4 0 10
      vertex 8 0 152
    endloop
  endfacet
  facet normal 0 -1 0
    outer loop
      vertex 4 0 10
      vertex 2 0 152
      vertex 2 0 10
    endloop
  endfacet
  facet normal 0 -1 0
    outer loop
      vertex 0 0 162
      vertex 2 0 10
      vertex 2 0 152
    endloop
  endfacet
  facet normal 0 -1 0
    outer loop
      vertex 0 0 0
      vertex 2 0 10
      vertex 0 0 162
    endloop
  endfacet
  facet normal 0 -1 -0
    outer loop
      vertex 2 0 10
      vertex 0 0 0
      vertex 2 0 0
    endloop
  endfacet
  facet normal 0 -1 0
    outer loop
      vertex 4 0 152
      vertex 8 0 162
      vertex 4 0 162
    endloop
  endfacet
  facet normal 0 -1 -0
    outer loop
      vertex 8 0 162
      vertex 4 0 152
      vertex 8 0 152
    endloop
  endfacet
  facet normal 0 -1 0
    outer loop
      vertex 10 0 152
      vertex 12 0 162
      vertex 10 0 162
    endloop
  endfacet
  facet normal 0 -1 0
    outer loop
      vertex 8 0 10
      vertex 8 0 152
      vertex 4 0 10
    endloop
  endfacet
  facet normal 0 -1 0
    outer loop
      vertex 8 0 152
      vertex 8 0 10
      vertex 10 0 152
    endloop
  endfacet
  facet normal 0 -1 0
    outer loop
      vertex 10 0 10
      vertex 10 0 152
      vertex 8 0 10
    endloop
  endfacet
  facet normal 0 -1 0
    outer loop
      vertex 10 0 152
      vertex 10 0 10
      vertex 12 0 162
    endloop
  endfacet
  facet normal 0 -1 0
    outer loop
      vertex 12 0 0
      vertex 10 0 10
      vertex 10 0 0
    endloop
  endfacet
  facet normal 0 -1 0
    outer loop
      vertex 10 0 10
      vertex 12 0 0
      vertex 12 0 162
    endloop
  endfacet
  facet normal 1 0 0
    outer loop
      vertex 6 10 152
      vertex 6 15 15
      vertex 6 15 147
    endloop
  endfacet
  facet normal 1 0 0
    outer loop
      vertex 6 15 15
      vertex 6 10 152
      vertex 6 10 10
    endloop
  endfacet
  facet normal 0 1 -0
    outer loop
      vertex 12 10 10
      vertex 10 10 152
      vertex 12 10 152
    endloop
  endfacet
  facet normal 0 1 0
    outer loop
      vertex 10 10 152
      vertex 12 10 10
      vertex 10 10 10
    endloop
  endfacet
  facet normal 0 1 -0
    outer loop
      vertex 8 10 10
      vertex 6 10 152
      vertex 8 10 152
    endloop
  endfacet
  facet normal 0 1 0
    outer loop
      vertex 6 10 152
      vertex 8 10 10
      vertex 6 10 10
    endloop
  endfacet
  facet normal -1 0 0
    outer loop
      vertex 10 10 10
      vertex 10 5 10
      vertex 10 10 152
    endloop
  endfacet
  facet normal -1 0 0
    outer loop
      vertex 10 0 0
      vertex 10 5 10
      vertex 10 10 10
    endloop
  endfacet
  facet normal -1 -0 0
    outer loop
      vertex 10 5 10
      vertex 10 0 0
      vertex 10 0 10
    endloop
  endfacet
  facet normal -1 0 0
    outer loop
      vertex 10 5 152
      vertex 10 10 152
      vertex 10 5 10
    endloop
  endfacet
  facet normal -1 0 0
    outer loop
      vertex 10 0 162
      vertex 10 5 152
      vertex 10 0 152
    endloop
  endfacet
  facet normal -1 0 0
    outer loop
      vertex 10 5 152
      vertex 10 0 162
      vertex 10 10 152
    endloop
  endfacet
  facet normal 1 0 0
    outer loop
      vertex 8 10 152
      vertex 8 5 152
      vertex 8 10 10
    endloop
  endfacet
  facet normal 1 0 0
    outer loop
      vertex 8 0 162
      vertex 8 5 152
      vertex 8 10 152
    endloop
  endfacet
  facet normal 1 0 0
    outer loop
      vertex 8 5 152
      vertex 8 0 162
      vertex 8 0 152
    endloop
  endfacet
  facet normal 1 0 0
    outer loop
      vertex 8 5 10
      vertex 8 10 10
      vertex 8 5 152
    endloop
  endfacet
  facet normal 1 0 0
    outer loop
      vertex 8 0 0
      vertex 8 5 10
      vertex 8 0 10
    endloop
  endfacet
  facet normal 1 -0 0
    outer loop
      vertex 8 5 10
      vertex 8 0 0
      vertex 8 10 10
    endloop
  endfacet
  facet normal 0 1 -0
    outer loop
      vertex 10 5 10
      vertex 8 5 152
      vertex 10 5 152
    endloop
  endfacet
  facet normal 0 1 0
    outer loop
      vertex 8 5 152
      vertex 10 5 10
      vertex 8 5 10
    endloop
  endfacet
  facet normal 0 0 -1
    outer loop
      vertex 8 0 10
      vertex 10 5 10
      vertex 10 0 10
    endloop
  endfacet
  facet normal -0 0 -1
    outer loop
      vertex 10 5 10
      vertex 8 0 10
      vertex 8 5 10
    endloop
  endfacet
  facet normal -0 0 1
    outer loop
      vertex 8 5 152
      vertex 10 0 152
      vertex 10 5 152
    endloop
  endfacet
  facet normal 0 0 1
    outer loop
      vertex 10 0 152
      vertex 8 5 152
      vertex 8 0 152
    endloop
  endfacet
  facet normal -1 0 0
    outer loop
      vertex 4 0 10
      vertex 4 10 10
      vertex 4 0 0
    endloop
  endfacet
  facet normal 0 0 -1
    outer loop
      vertex 2 0 10
      vertex 4 10 10
      vertex 4 0 10
    endloop
  endfacet
  facet normal -0 0 -1
    outer loop
      vertex 4 10 10
      vertex 2 0 10
      vertex 2 10 10
    endloop
  endfacet
  facet normal 1 0 0
    outer loop
      vertex 2 10 10
      vertex 2 0 10
      vertex 2 0 0
    endloop
  endfacet
  facet normal -1 0 0
    outer loop
      vertex 4 0 162
      vertex 4 10 152
      vertex 4 0 152
    endloop
  endfacet
  facet normal -0 0 1
    outer loop
      vertex 2 10 152
      vertex 4 0 152
      vertex 4 10 152
    endloop
  endfacet
  facet normal 0 0 1
    outer loop
      vertex 4 0 152
      vertex 2 10 152
      vertex 2 0 152
    endloop
  endfacet
  facet normal 1 0 0
    outer loop
      vertex 2 10 152
      vertex 2 0 162
      vertex 2 0 152
    endloop
  endfacet
  facet normal 0 0.707107 -0.707107
    outer loop
      vertex 12 0 0
      vertex 10 10 10
      vertex 12 10 10
    endloop
  endfacet
  facet normal 0 0.707107 -0.707107
    outer loop
      vertex 10 10 10
      vertex 12 0 0
      vertex 10 0 0
    endloop
  endfacet
  facet normal 0 0.707107 -0.707107
    outer loop
      vertex 4 10 10
      vertex 6 15 15
      vertex 6 10 10
    endloop
  endfacet
  facet normal 0 0.707107 -0.707107
    outer loop
      vertex 6 15 15
      vertex 4 10 10
      vertex 0 15 15
    endloop
  endfacet
  facet normal 0 0.707107 -0.707107
    outer loop
      vertex 2 10 10
      vertex 0 15 15
      vertex 4 10 10
    endloop
  endfacet
  facet normal 0 0.707107 -0.707107
    outer loop
      vertex 0 0 0
      vertex 2 10 10
      vertex 2 0 0
    endloop
  endfacet
  facet normal 0 0.707107 -0.707107
    outer loop
      vertex 2 10 10
      vertex 0 0 0
      vertex 0 15 15
    endloop
  endfacet
  facet normal 0 0.707107 -0.707107
    outer loop
      vertex 8 0 0
      vertex 6 10 10
      vertex 8 10 10
    endloop
  endfacet
  facet normal 0 0.707107 -0.707107
    outer loop
      vertex 4 0 0
      vertex 6 10 10
      vertex 8 0 0
    endloop
  endfacet
  facet normal 0 0.707107 -0.707107
    outer loop
      vertex 6 10 10
      vertex 4 0 0
      vertex 4 10 10
    endloop
  endfacet
  facet normal -0 0.707107 0.707107
    outer loop
      vertex 6 10 152
      vertex 8 0 162
      vertex 8 10 152
    endloop
  endfacet
  facet normal 0 0.707107 0.707107
    outer loop
      vertex 8 0 162
      vertex 6 10 152
      vertex 4 0 162
    endloop
  endfacet
  facet normal 0 0.707107 0.707107
    outer loop
      vertex 6 10 152
      vertex 4 10 152
      vertex 4 0 162
    endloop
  endfacet
  facet normal 0 0.707107 0.707107
    outer loop
      vertex 6 15 147
      vertex 4 10 152
      vertex 6 10 152
    endloop
  endfacet
  facet normal 0 0.707107 0.707107
    outer loop
      vertex 4 10 152
      vertex 6 15 147
      vertex 2 10 152
    endloop
  endfacet
  facet normal 0 0.707107 0.707107
    outer loop
      vertex 2 10 152
      vertex 0 0 162
      vertex 2 0 162
    endloop
  endfacet
  facet normal 0 0.707107 0.707107
    outer loop
      vertex 2 10 152
      vertex 0 15 147
      vertex 0 0 162
    endloop
  endfacet
  facet normal -0 0.707107 0.707107
    outer loop
      vertex 0 15 147
      vertex 2 10 152
      vertex 6 15 147
    endloop
  endfacet
  facet normal 0 0.707107 0.707107
    outer loop
      vertex 12 10 152
      vertex 10 0 162
      vertex 12 0 162
    endloop
  endfacet
  facet normal 0 0.707107 0.707107
    outer loop
      vertex 10 0 162
      vertex 12 10 152
      vertex 10 10 152
    endloop
  endfacet
endsolid OpenSCAD_Model
