solid OpenSCAD_Model
  facet normal 1 0 0
    outer loop
      vertex 8 0 139
      vertex 8 7 7
      vertex 8 7 132
    endloop
  endfacet
  facet normal 1 0 0
    outer loop
      vertex 8 7 7
      vertex 8 0 139
      vertex 8 0 0
    endloop
  endfacet
  facet normal -1 0 0
    outer loop
      vertex 0 0 0
      vertex 0 9 130
      vertex 0 9 9
    endloop
  endfacet
  facet normal -1 -0 0
    outer loop
      vertex 0 9 130
      vertex 0 0 0
      vertex 0 0 139
    endloop
  endfacet
  facet normal 0 1 -0
    outer loop
      vertex 2 9 9
      vertex 0 9 130
      vertex 2 9 130
    endloop
  endfacet
  facet normal 0 1 0
    outer loop
      vertex 0 9 130
      vertex 2 9 9
      vertex 0 9 9
    endloop
  endfacet
  facet normal 0 -1 0
    outer loop
      vertex 0 0 0
      vertex 8 0 139
      vertex 0 0 139
    endloop
  endfacet
  facet normal 0 -1 -0
    outer loop
      vertex 8 0 139
      vertex 0 0 0
      vertex 8 0 0
    endloop
  endfacet
  facet normal 1 0 0
    outer loop
      vertex 2 7 132
      vertex 2 9 9
      vertex 2 9 130
    endloop
  endfacet
  facet normal 1 0 0
    outer loop
      vertex 2 9 9
      vertex 2 7 132
      vertex 2 7 7
    endloop
  endfacet
  facet normal 0 1 -0
    outer loop
      vertex 8 7 7
      vertex 6 7 132
      vertex 8 7 132
    endloop
  endfacet
  facet normal 0 1 0
    outer loop
      vertex 6 7 132
      vertex 8 7 7
      vertex 6 7 7
    endloop
  endfacet
  facet normal 0 1 -0
    outer loop
      vertex 4 7 7
      vertex 2 7 132
      vertex 4 7 132
    endloop
  endfacet
  facet normal 0 1 0
    outer loop
      vertex 2 7 132
      vertex 4 7 7
      vertex 2 7 7
    endloop
  endfacet
  facet normal -1 0 0
    outer loop
      vertex 6 2 2
      vertex 6 7 132
      vertex 6 7 7
    endloop
  endfacet
  facet normal -1 -0 0
    outer loop
      vertex 6 7 132
      vertex 6 2 2
      vertex 6 2 137
    endloop
  endfacet
  facet normal 1 0 0
    outer loop
      vertex 4 2 137
      vertex 4 7 7
      vertex 4 7 132
    endloop
  endfacet
  facet normal 1 0 0
    outer loop
      vertex 4 7 7
      vertex 4 2 137
      vertex 4 2 2
    endloop
  endfacet
  facet normal 0 1 -0
    outer loop
      vertex 6 2 2
      vertex 4 2 137
      vertex 6 2 137
    endloop
  endfacet
  facet normal 0 1 0
    outer loop
      vertex 4 2 137
      vertex 6 2 2
      vertex 4 2 2
    endloop
  endfacet
  facet normal 0 0.707107 -0.707107
    outer loop
      vertex 8 7 7
      vertex 6 2 2
      vertex 6 7 7
    endloop
  endfacet
  facet normal 0 0.707107 -0.707107
    outer loop
      vertex 6 2 2
      vertex 8 0 0
      vertex 4 2 2
    endloop
  endfacet
  facet normal 0 0.707107 -0.707107
    outer loop
      vertex 8 0 0
      vertex 6 2 2
      vertex 8 7 7
    endloop
  endfacet
  facet normal 0 0.707107 -0.707107
    outer loop
      vertex 4 7 7
      vertex 4 2 2
      vertex 2 7 7
    endloop
  endfacet
  facet normal 0 0.707107 -0.707107
    outer loop
      vertex 2 7 7
      vertex 0 9 9
      vertex 2 9 9
    endloop
  endfacet
  facet normal 0 0.707107 -0.707107
    outer loop
      vertex 0 0 0
      vertex 2 7 7
      vertex 4 2 2
    endloop
  endfacet
  facet normal 0 0.707107 -0.707107
    outer loop
      vertex 2 7 7
      vertex 0 0 0
      vertex 0 9 9
    endloop
  endfacet
  facet normal 0 0.707107 -0.707107
    outer loop
      vertex 0 0 0
      vertex 4 2 2
      vertex 8 0 0
    endloop
  endfacet
  facet normal -0 0.707107 0.707107
    outer loop
      vertex 4 2 137
      vertex 8 0 139
      vertex 6 2 137
    endloop
  endfacet
  facet normal 0 0.707107 0.707107
    outer loop
      vertex 8 7 132
      vertex 6 2 137
      vertex 8 0 139
    endloop
  endfacet
  facet normal 0 0.707107 0.707107
    outer loop
      vertex 6 2 137
      vertex 8 7 132
      vertex 6 7 132
    endloop
  endfacet
  facet normal 0 0.707107 0.707107
    outer loop
      vertex 8 0 139
      vertex 4 2 137
      vertex 0 0 139
    endloop
  endfacet
  facet normal -0 0.707107 0.707107
    outer loop
      vertex 2 7 132
      vertex 4 2 137
      vertex 4 7 132
    endloop
  endfacet
  facet normal 0 0.707107 0.707107
    outer loop
      vertex 4 2 137
      vertex 2 7 132
      vertex 0 0 139
    endloop
  endfacet
  facet normal -0 0.707107 0.707107
    outer loop
      vertex 0 9 130
      vertex 2 7 132
      vertex 2 9 130
    endloop
  endfacet
  facet normal 0 0.707107 0.707107
    outer loop
      vertex 2 7 132
      vertex 0 9 130
      vertex 0 0 139
    endloop
  endfacet
endsolid OpenSCAD_Model
