solid OpenSCAD_Model
  facet normal 1 0 0
    outer loop
      vertex 12 0 70
      vertex 12 10 10
      vertex 12 10 60
    endloop
  endfacet
  facet normal 1 0 0
    outer loop
      vertex 12 10 10
      vertex 12 0 70
      vertex 12 0 0
    endloop
  endfacet
  facet normal -1 0 0
    outer loop
      vertex 0 0 0
      vertex 0 15 55
      vertex 0 15 15
    endloop
  endfacet
  facet normal -1 -0 0
    outer loop
      vertex 0 15 55
      vertex 0 0 0
      vertex 0 0 70
    endloop
  endfacet
  facet normal 0 1 -0
    outer loop
      vertex 6 15 15
      vertex 0 15 55
      vertex 6 15 55
    endloop
  endfacet
  facet normal 0 1 0
    outer loop
      vertex 0 15 55
      vertex 6 15 15
      vertex 0 15 15
    endloop
  endfacet
  facet normal 0 -1 0
    outer loop
      vertex 4 0 0
      vertex 8 0 10
      vertex 4 0 10
    endloop
  endfacet
  facet normal 0 -1 -0
    outer loop
      vertex 8 0 10
      vertex 4 0 0
      vertex 8 0 0
    endloop
  endfacet
  facet normal 0 -1 0
    outer loop
      vertex 0 0 70
      vertex 2 0 60
      vertex 2 0 70
    endloop
  endfacet
  facet normal 0 -1 0
    outer loop
      vertex 4 0 10
      vertex 4 0 60
      vertex 2 0 60
    endloop
  endfacet
  facet normal 0 -1 0
    outer loop
      vertex 4 0 60
      vertex 4 0 10
      vertex 8 0 60
    endloop
  endfacet
  facet normal 0 -1 0
    outer loop
      vertex 4 0 10
      vertex 2 0 60
      vertex 2 0 10
    endloop
  endfacet
  facet normal 0 -1 0
    outer loop
      vertex 0 0 70
      vertex 2 0 10
      vertex 2 0 60
    endloop
  endfacet
  facet normal 0 -1 0
    outer loop
      vertex 0 0 0
      vertex 2 0 10
      vertex 0 0 70
    endloop
  endfacet
  facet normal 0 -1 -0
    outer loop
      vertex 2 0 10
      vertex 0 0 0
      vertex 2 0 0
    endloop
  endfacet
  facet normal 0 -1 0
    outer loop
      vertex 4 0 60
      vertex 8 0 70
      vertex 4 0 70
    endloop
  endfacet
  facet normal 0 -1 -0
    outer loop
      vertex 8 0 70
      vertex 4 0 60
      vertex 8 0 60
    endloop
  endfacet
  facet normal 0 -1 0
    outer loop
      vertex 10 0 60
      vertex 12 0 70
      vertex 10 0 70
    endloop
  endfacet
  facet normal 0 -1 0
    outer loop
      vertex 8 0 10
      vertex 8 0 60
      vertex 4 0 10
    endloop
  endfacet
  facet normal 0 -1 0
    outer loop
      vertex 8 0 60
      vertex 8 0 10
      vertex 10 0 60
    endloop
  endfacet
  facet normal 0 -1 0
    outer loop
      vertex 10 0 10
      vertex 10 0 60
      vertex 8 0 10
    endloop
  endfacet
  facet normal 0 -1 0
    outer loop
      vertex 10 0 60
      vertex 10 0 10
      vertex 12 0 70
    endloop
  endfacet
  facet normal 0 -1 0
    outer loop
      vertex 12 0 0
      vertex 10 0 10
      vertex 10 0 0
    endloop
  endfacet
  facet normal 0 -1 0
    outer loop
      vertex 10 0 10
      vertex 12 0 0
      vertex 12 0 70
    endloop
  endfacet
  facet normal 1 0 0
    outer loop
      vertex 6 10 60
      vertex 6 15 15
      vertex 6 15 55
    endloop
  endfacet
  facet normal 1 0 0
    outer loop
      vertex 6 15 15
      vertex 6 10 60
      vertex 6 10 10
    endloop
  endfacet
  facet normal 0 1 -0
    outer loop
      vertex 12 10 10
      vertex 10 10 60
      vertex 12 10 60
    endloop
  endfacet
  facet normal 0 1 0
    outer loop
      vertex 10 10 60
      vertex 12 10 10
      vertex 10 10 10
    endloop
  endfacet
  facet normal 0 1 -0
    outer loop
      vertex 8 10 10
      vertex 6 10 60
      vertex 8 10 60
    endloop
  endfacet
  facet normal 0 1 0
    outer loop
      vertex 6 10 60
      vertex 8 10 10
      vertex 6 10 10
    endloop
  endfacet
  facet normal -1 0 0
    outer loop
      vertex 10 10 10
      vertex 10 5 10
      vertex 10 10 60
    endloop
  endfacet
  facet normal -1 0 0
    outer loop
      vertex 10 0 0
      vertex 10 5 10
      vertex 10 10 10
    endloop
  endfacet
  facet normal -1 -0 0
    outer loop
      vertex 10 5 10
      vertex 10 0 0
      vertex 10 0 10
    endloop
  endfacet
  facet normal -1 0 0
    outer loop
      vertex 10 5 60
      vertex 10 10 60
      vertex 10 5 10
    endloop
  endfacet
  facet normal -1 0 0
    outer loop
      vertex 10 0 70
      vertex 10 5 60
      vertex 10 0 60
    endloop
  endfacet
  facet normal -1 0 0
    outer loop
      vertex 10 5 60
      vertex 10 0 70
      vertex 10 10 60
    endloop
  endfacet
  facet normal 1 0 0
    outer loop
      vertex 8 10 60
      vertex 8 5 60
      vertex 8 10 10
    endloop
  endfacet
  facet normal 1 0 0
    outer loop
      vertex 8 0 70
      vertex 8 5 60
      vertex 8 10 60
    endloop
  endfacet
  facet normal 1 0 0
    outer loop
      vertex 8 5 60
      vertex 8 0 70
      vertex 8 0 60
    endloop
  endfacet
  facet normal 1 0 0
    outer loop
      vertex 8 5 10
      vertex 8 10 10
      vertex 8 5 60
    endloop
  endfacet
  facet normal 1 0 0
    outer loop
      vertex 8 0 0
      vertex 8 5 10
      vertex 8 0 10
    endloop
  endfacet
  facet normal 1 -0 0
    outer loop
      vertex 8 5 10
      vertex 8 0 0
      vertex 8 10 10
    endloop
  endfacet
  facet normal 0 1 -0
    outer loop
      vertex 10 5 10
      vertex 8 5 60
      vertex 10 5 60
    endloop
  endfacet
  facet normal 0 1 0
    outer loop
      vertex 8 5 60
      vertex 10 5 10
      vertex 8 5 10
    endloop
  endfacet
  facet normal 0 0 -1
    outer loop
      vertex 8 0 10
      vertex 10 5 10
      vertex 10 0 10
    endloop
  endfacet
  facet normal -0 0 -1
    outer loop
      vertex 10 5 10
      vertex 8 0 10
      vertex 8 5 10
    endloop
  endfacet
  facet normal -0 0 1
    outer loop
      vertex 8 5 60
      vertex 10 0 60
      vertex 10 5 60
    endloop
  endfacet
  facet normal 0 0 1
    outer loop
      vertex 10 0 60
      vertex 8 5 60
      vertex 8 0 60
    endloop
  endfacet
  facet normal -1 0 0
    outer loop
      vertex 4 0 10
      vertex 4 10 10
      vertex 4 0 0
    endloop
  endfacet
  facet normal 0 0 -1
    outer loop
      vertex 2 0 10
      vertex 4 10 10
      vertex 4 0 10
    endloop
  endfacet
  facet normal -0 0 -1
    outer loop
      vertex 4 10 10
      vertex 2 0 10
      vertex 2 10 10
    endloop
  endfacet
  facet normal 1 0 0
    outer loop
      vertex 2 10 10
      vertex 2 0 10
      vertex 2 0 0
    endloop
  endfacet
  facet normal -1 0 0
    outer loop
      vertex 4 0 70
      vertex 4 10 60
      vertex 4 0 60
    endloop
  endfacet
  facet normal -0 0 1
    outer loop
      vertex 2 10 60
      vertex 4 0 60
      vertex 4 10 60
    endloop
  endfacet
  facet normal 0 0 1
    outer loop
      vertex 4 0 60
      vertex 2 10 60
      vertex 2 0 60
    endloop
  endfacet
  facet normal 1 0 0
    outer loop
      vertex 2 10 60
      vertex 2 0 70
      vertex 2 0 60
    endloop
  endfacet
  facet normal 0 0.707107 -0.707107
    outer loop
      vertex 12 0 0
      vertex 10 10 10
      vertex 12 10 10
    endloop
  endfacet
  facet normal 0 0.707107 -0.707107
    outer loop
      vertex 10 10 10
      vertex 12 0 0
      vertex 10 0 0
    endloop
  endfacet
  facet normal 0 0.707107 -0.707107
    outer loop
      vertex 4 10 10
      vertex 6 15 15
      vertex 6 10 10
    endloop
  endfacet
  facet normal 0 0.707107 -0.707107
    outer loop
      vertex 6 15 15
      vertex 4 10 10
      vertex 0 15 15
    endloop
  endfacet
  facet normal 0 0.707107 -0.707107
    outer loop
      vertex 2 10 10
      vertex 0 15 15
      vertex 4 10 10
    endloop
  endfacet
  facet normal 0 0.707107 -0.707107
    outer loop
      vertex 0 0 0
      vertex 2 10 10
      vertex 2 0 0
    endloop
  endfacet
  facet normal 0 0.707107 -0.707107
    outer loop
      vertex 2 10 10
      vertex 0 0 0
      vertex 0 15 15
    endloop
  endfacet
  facet normal 0 0.707107 -0.707107
    outer loop
      vertex 8 0 0
      vertex 6 10 10
      vertex 8 10 10
    endloop
  endfacet
  facet normal 0 0.707107 -0.707107
    outer loop
      vertex 4 0 0
      vertex 6 10 10
      vertex 8 0 0
    endloop
  endfacet
  facet normal 0 0.707107 -0.707107
    outer loop
      vertex 6 10 10
      vertex 4 0 0
      vertex 4 10 10
    endloop
  endfacet
  facet normal -0 0.707107 0.707107
    outer loop
      vertex 6 10 60
      vertex 8 0 70
      vertex 8 10 60
    endloop
  endfacet
  facet normal 0 0.707107 0.707107
    outer loop
      vertex 8 0 70
      vertex 6 10 60
      vertex 4 0 70
    endloop
  endfacet
  facet normal 0 0.707107 0.707107
    outer loop
      vertex 6 10 60
      vertex 4 10 60
      vertex 4 0 70
    endloop
  endfacet
  facet normal 0 0.707107 0.707107
    outer loop
      vertex 6 15 55
      vertex 4 10 60
      vertex 6 10 60
    endloop
  endfacet
  facet normal 0 0.707107 0.707107
    outer loop
      vertex 4 10 60
      vertex 6 15 55
      vertex 2 10 60
    endloop
  endfacet
  facet normal 0 0.707107 0.707107
    outer loop
      vertex 2 10 60
      vertex 0 0 70
      vertex 2 0 70
    endloop
  endfacet
  facet normal 0 0.707107 0.707107
    outer loop
      vertex 2 10 60
      vertex 0 15 55
      vertex 0 0 70
    endloop
  endfacet
  facet normal -0 0.707107 0.707107
    outer loop
      vertex 0 15 55
      vertex 2 10 60
      vertex 6 15 55
    endloop
  endfacet
  facet normal 0 0.707107 0.707107
    outer loop
      vertex 12 10 60
      vertex 10 0 70
      vertex 12 0 70
    endloop
  endfacet
  facet normal 0 0.707107 0.707107
    outer loop
      vertex 10 0 70
      vertex 12 10 60
      vertex 10 10 60
    endloop
  endfacet
endsolid OpenSCAD_Model
